<svg xmlns="http://www.w3.org/2000/svg" xmlns:xlink="http://www.w3.org/1999/xlink" width="1921.624" height="1080.648" viewBox="0 0 1921.624 1080.648">
  <defs>
    <linearGradient id="linear-gradient" x1="1.074" y1="0.904" x2="0.008" gradientUnits="objectBoundingBox">
      <stop offset="0" stop-color="#536976"/>
      <stop offset="1" stop-color="#292e49"/>
    </linearGradient>
    <linearGradient id="linear-gradient-2" x1="-0.162" y1="-0.162" x2="0.922" y2="0.922" xlink:href="#linear-gradient"/>
  </defs>
  <g id="Group_17" data-name="Group 17" transform="translate(1.623 0.5)">
    <path id="Subtraction_2" data-name="Subtraction 2" d="M-1727.9,621.442a18.455,18.455,0,0,1-7.647-1.662,25.308,25.308,0,0,1-7.376-5.275L-1900.611,456.82a86.637,86.637,0,0,1-11.02-13.491,85.56,85.56,0,0,1-7.871-14.958,86,86,0,0,1-4.723-15.936,86.627,86.627,0,0,1-1.574-16.426,86.625,86.625,0,0,1,1.574-16.425,86,86,0,0,1,4.723-15.936,85.562,85.562,0,0,1,7.871-14.958,86.625,86.625,0,0,1,11.02-13.491l147.078-147.079a85.861,85.861,0,0,1,22.8-16.359,85.647,85.647,0,0,1,25.887-7.975v446.24a57.224,57.224,0,0,1-11.7,8.35A25.094,25.094,0,0,1-1727.9,621.442Z" transform="translate(3624.843 -27)" fill="#b8c1c6"/>
    <path id="Subtraction_8" data-name="Subtraction 8" d="M-1296.738,1148.147H-1922.5V97.5h503.1l348.042,629.307a261.225,261.225,0,0,1,20.657,48.2,258.3,258.3,0,0,1,10.348,49.837,259.744,259.744,0,0,1,.442,50.056,261.513,261.513,0,0,1-9.057,48.858,261.363,261.363,0,0,1-18.151,46.244,259.162,259.162,0,0,1-26.843,42.215,257.369,257.369,0,0,1-35.125,36.77,260.288,260.288,0,0,1-43,29.908l-124.645,69.249Z" transform="translate(1922 -98)" fill="rgba(80,101,115,0.4)"/>
    <path id="Subtraction_3" data-name="Subtraction 3" d="M-544.25,1804.668h-569.261V724.52h472.455l355.2,640.791a260.917,260.917,0,0,1,20.7,48.2,257.678,257.678,0,0,1,10.371,49.838,259.015,259.015,0,0,1,.444,50.056,260.865,260.865,0,0,1-9.078,48.858,260.849,260.849,0,0,1-18.193,46.244,259.028,259.028,0,0,1-26.9,42.215,257.7,257.7,0,0,1-35.2,36.769,260.9,260.9,0,0,1-43.1,29.908l-157.43,87.265h0Z" transform="translate(1111.887 -724.52)" fill="url(#linear-gradient)"/>
    <path id="Subtraction_1" data-name="Subtraction 1" d="M-1743.37,629.7h0a85.6,85.6,0,0,1-24.335-8.186,85.96,85.96,0,0,1-21.474-15.691l-140.007-140.007a86.638,86.638,0,0,1-11.02-13.491,85.571,85.571,0,0,1-7.872-14.958,86.008,86.008,0,0,1-4.723-15.936A86.613,86.613,0,0,1-1954.378,405a86.612,86.612,0,0,1,1.574-16.425,86.01,86.01,0,0,1,4.723-15.936,85.571,85.571,0,0,1,7.872-14.958,86.639,86.639,0,0,1,11.02-13.491l140.007-140.007a85.96,85.96,0,0,1,21.474-15.691,85.629,85.629,0,0,1,24.337-8.188Z" transform="translate(3663.371 -22)" fill="url(#linear-gradient-2)"/>
  </g>
</svg>
