<svg xmlns="http://www.w3.org/2000/svg" xmlns:xlink="http://www.w3.org/1999/xlink" width="1921.624" height="1080.147" viewBox="0 0 1921.624 1080.147">
  <defs>
    <linearGradient id="linear-gradient" x1="0.848" y1="0.022" x2="0.642" y2="0.999" gradientUnits="objectBoundingBox">
      <stop offset="0" stop-color="#5433ff"/>
      <stop offset="0.502" stop-color="#20bdff"/>
      <stop offset="1" stop-color="#a5fecb"/>
    </linearGradient>
    <linearGradient id="linear-gradient-2" x1="-0.162" y1="-0.162" x2="0.922" y2="0.922" xlink:href="#linear-gradient"/>
  </defs>
  <g id="Group_5" data-name="Group 5" transform="translate(1.623)">
    <rect id="Rectangle_14" data-name="Rectangle 14" width="1920" height="1080" fill="#fff"/>
    <path id="Subtraction_2" data-name="Subtraction 2" d="M-1704.843,630.523h0a85.633,85.633,0,0,1-26.423-7.884,85.827,85.827,0,0,1-23.265-16.586L-1929.189,431.4a86.64,86.64,0,0,1-11.02-13.491,85.561,85.561,0,0,1-7.872-14.958,86,86,0,0,1-4.723-15.936,86.624,86.624,0,0,1-1.574-16.425,86.624,86.624,0,0,1,1.574-16.425,86,86,0,0,1,4.723-15.936,85.561,85.561,0,0,1,7.872-14.958,86.64,86.64,0,0,1,11.02-13.491l174.656-174.656a85.825,85.825,0,0,1,23.265-16.586,85.658,85.658,0,0,1,26.425-7.885Z" transform="translate(3624.843 -22)" fill="#e2f8fe"/>
    <path id="Subtraction_4" data-name="Subtraction 4" d="M-490.858,1804.668h-679.3V724.521h540.007l365.182,658.806a260.9,260.9,0,0,1,20.7,48.2,257.691,257.691,0,0,1,10.371,49.838,259.009,259.009,0,0,1,.444,50.056,260.846,260.846,0,0,1-9.077,48.858,260.86,260.86,0,0,1-18.192,46.244,259.039,259.039,0,0,1-26.9,42.215,257.712,257.712,0,0,1-35.2,36.769,260.918,260.918,0,0,1-43.1,29.908l-124.928,69.249Z" transform="translate(1168.536 -724.52)" fill="#e2f8fe"/>
    <path id="Subtraction_3" data-name="Subtraction 3" d="M-571.064,1804.668h-542.447V724.521h465.6l350.505,632.329a260.914,260.914,0,0,1,20.7,48.2,257.691,257.691,0,0,1,10.371,49.838,259.011,259.011,0,0,1,.444,50.056,260.851,260.851,0,0,1-9.077,48.858,260.872,260.872,0,0,1-18.192,46.244,259.025,259.025,0,0,1-26.9,42.214,257.7,257.7,0,0,1-35.2,36.769,260.919,260.919,0,0,1-43.1,29.908l-172.694,95.726Z" transform="translate(1111.887 -724.52)" fill="url(#linear-gradient)"/>
    <path id="Subtraction_1" data-name="Subtraction 1" d="M-1743.37,629.7h0a85.6,85.6,0,0,1-24.335-8.186,85.96,85.96,0,0,1-21.474-15.691l-140.007-140.007a86.638,86.638,0,0,1-11.02-13.491,85.571,85.571,0,0,1-7.872-14.958,86.008,86.008,0,0,1-4.723-15.936A86.613,86.613,0,0,1-1954.378,405a86.612,86.612,0,0,1,1.574-16.425,86.01,86.01,0,0,1,4.723-15.936,85.571,85.571,0,0,1,7.872-14.958,86.639,86.639,0,0,1,11.02-13.491l140.007-140.007a85.96,85.96,0,0,1,21.474-15.691,85.629,85.629,0,0,1,24.337-8.188Z" transform="translate(3663.371 -22)" fill="url(#linear-gradient-2)"/>
  </g>
</svg>
