<svg xmlns="http://www.w3.org/2000/svg" width="1235.029" height="1078.141" viewBox="0 0 1235.029 1078.141">
  <path id="Signin_bg_faded_" data-name="Signin_bg(faded)" d="M-2571.71,1338.752H-3806.739c30.894-17.205,60.368-35.491,87.6-54.352,15.867-10.988,31.178-22.32,45.505-33.68,15.626-12.389,30.479-25.125,44.147-37.854,14.758-13.744,28.525-27.844,40.919-41.908a476.378,476.378,0,0,0,35.821-45.841,380.335,380.335,0,0,0,28.853-49.654c4.163-8.667,7.941-17.489,11.229-26.219,3.378-8.97,6.334-18.1,8.786-27.126,2.419-8.91,4.413-17.971,5.927-26.932a274.122,274.122,0,0,0,3.243-27.745,272.681,272.681,0,0,0,.35-28.544,279.782,279.782,0,0,0-2.75-29.329,296.806,296.806,0,0,0-6.059-30.1c-2.609-10.221-5.831-20.6-9.575-30.859-3.822-10.469-8.3-21.1-13.3-31.6-5.1-10.713-10.9-21.592-17.233-32.336-89.527-151.928-144.945-260.86-174.4-342.817a564.928,564.928,0,0,1-17.444-57.082c-2.1-8.669-3.866-17.14-5.236-25.176-1.358-7.968-2.374-15.759-3.019-23.158-2.509-28.768.274-53.57,8.509-75.823H-2571.71V1338.752Z" transform="translate(3806.739 -260.612)" fill="#e2f8fe"/>
</svg>
