<svg id="Group_19" data-name="Group 19" xmlns="http://www.w3.org/2000/svg" xmlns:xlink="http://www.w3.org/1999/xlink" width="1920" height="1080" viewBox="0 0 1920 1080">
  <defs>
    <linearGradient id="linear-gradient" x1="-0.162" y1="-0.162" x2="0.922" y2="0.922" gradientUnits="objectBoundingBox">
      <stop offset="0" stop-color="#536976"/>
      <stop offset="1" stop-color="#292e49"/>
    </linearGradient>
    <linearGradient id="linear-gradient-2" x1="0.5" x2="0.5" y2="1.94" gradientUnits="objectBoundingBox">
      <stop offset="0" stop-color="#536976"/>
      <stop offset="1" stop-color="#08090f"/>
    </linearGradient>
  </defs>
  <rect id="Rectangle_14" data-name="Rectangle 14" width="1920" height="1080" fill="#fff"/>
  <path id="Subtraction_2" data-name="Subtraction 2" d="M239.05,526.442a23.24,23.24,0,0,1-9.237-1.912,30.6,30.6,0,0,1-8.91-6.068L30.427,337.078a100.815,100.815,0,0,1-13.312-15.519,96.882,96.882,0,0,1-9.509-17.207,94.915,94.915,0,0,1,0-74.452,96.89,96.89,0,0,1,9.509-17.206,100.8,100.8,0,0,1,13.312-15.518L208.091,27.992A103.76,103.76,0,0,1,235.636,9.174,107.276,107.276,0,0,1,266.907,0V513.308a69.21,69.21,0,0,1-14.128,9.6A31.5,31.5,0,0,1,239.05,526.442Z" transform="translate(266.95 1079.696) rotate(180)" fill="#b8c1c6"/>
  <path id="Subtraction_1" data-name="Subtraction 1" d="M256.956,518.176h0a108.3,108.3,0,0,1-29.634-9.439,104.61,104.61,0,0,1-26.15-18.092L30.674,329.207a101.217,101.217,0,0,1-13.42-15.556A96.963,96.963,0,0,1,7.668,296.4a94.656,94.656,0,0,1,0-74.63,96.966,96.966,0,0,1,9.586-17.248,101.211,101.211,0,0,1,13.42-15.556L201.17,27.533A104.609,104.609,0,0,1,227.32,9.441,108.333,108.333,0,0,1,256.956,0Z" transform="translate(257.001 1058.176) rotate(180)" fill="url(#linear-gradient)"/>
  <path id="Subtraction_11" data-name="Subtraction 11" d="M-1807,451h0a184.359,184.359,0,0,1-36.881-3.718,182.086,182.086,0,0,1-34.351-10.663,183,183,0,0,1-31.085-16.872A184.32,184.32,0,0,1-1936.4,397.4a184.322,184.322,0,0,1-22.346-27.084,183.007,183.007,0,0,1-16.872-31.085,182.066,182.066,0,0,1-10.663-34.351A184.348,184.348,0,0,1-1990,268a184.349,184.349,0,0,1,3.718-36.881,182.074,182.074,0,0,1,10.663-34.351,183.016,183.016,0,0,1,16.872-31.085A184.315,184.315,0,0,1-1936.4,138.6a184.313,184.313,0,0,1,27.083-22.346,183.014,183.014,0,0,1,31.085-16.873,182.074,182.074,0,0,1,34.351-10.663A184.349,184.349,0,0,1-1807,85V451Z" transform="translate(3727 74)" fill="url(#linear-gradient-2)"/>
  <path id="Subtraction_12" data-name="Subtraction 12" d="M-1898,360h-.016a92.6,92.6,0,0,1-18.525-1.868,91.531,91.531,0,0,1-17.269-5.361,92,92,0,0,1-15.628-8.482,92.663,92.663,0,0,1-13.616-11.234,92.66,92.66,0,0,1-11.234-13.616,92.018,92.018,0,0,1-8.482-15.628,91.531,91.531,0,0,1-5.361-17.269A92.682,92.682,0,0,1-1990,268a92.683,92.683,0,0,1,1.869-18.541,91.533,91.533,0,0,1,5.361-17.269,92.019,92.019,0,0,1,8.482-15.627,92.663,92.663,0,0,1,11.234-13.616,92.661,92.661,0,0,1,13.616-11.234,92,92,0,0,1,15.628-8.482,91.53,91.53,0,0,1,17.269-5.361A92.68,92.68,0,0,1-1898,176Z" transform="translate(3818 74)" fill="#fff"/>
</svg>
