<svg id="Group_8" data-name="Group 8" xmlns="http://www.w3.org/2000/svg" xmlns:xlink="http://www.w3.org/1999/xlink" width="1920" height="1080" viewBox="0 0 1920 1080">
  <defs>
    <linearGradient id="linear-gradient" x1="-0.162" y1="-0.162" x2="0.922" y2="0.922" gradientUnits="objectBoundingBox">
      <stop offset="0" stop-color="#5433ff"/>
      <stop offset="0.502" stop-color="#20bdff"/>
      <stop offset="1" stop-color="#a5fecb"/>
    </linearGradient>
  </defs>
  <rect id="Rectangle_14" data-name="Rectangle 14" width="1920" height="1080" fill="#fff"/>
  <path id="Subtraction_2" data-name="Subtraction 2" d="M-1704.843,630.523h0a85.633,85.633,0,0,1-26.423-7.884,85.827,85.827,0,0,1-23.265-16.586L-1929.189,431.4a86.64,86.64,0,0,1-11.02-13.491,85.561,85.561,0,0,1-7.872-14.958,86,86,0,0,1-4.723-15.936,86.624,86.624,0,0,1-1.574-16.425,86.624,86.624,0,0,1,1.574-16.425,86,86,0,0,1,4.723-15.936,85.561,85.561,0,0,1,7.872-14.958,86.64,86.64,0,0,1,11.02-13.491l174.656-174.656a85.825,85.825,0,0,1,23.265-16.586,85.658,85.658,0,0,1,26.425-7.885Z" transform="translate(-1704.377 1190.171) rotate(180)" fill="#e2f8fe"/>
  <path id="Subtraction_1" data-name="Subtraction 1" d="M-1743.37,629.7h0a85.6,85.6,0,0,1-24.335-8.186,85.96,85.96,0,0,1-21.474-15.691l-140.007-140.007a86.638,86.638,0,0,1-11.02-13.491,85.571,85.571,0,0,1-7.872-14.958,86.008,86.008,0,0,1-4.723-15.936A86.613,86.613,0,0,1-1954.378,405a86.612,86.612,0,0,1,1.574-16.425,86.01,86.01,0,0,1,4.723-15.936,85.571,85.571,0,0,1,7.872-14.958,86.639,86.639,0,0,1,11.02-13.491l140.007-140.007a85.96,85.96,0,0,1,21.474-15.691,85.629,85.629,0,0,1,24.337-8.188Z" transform="translate(-1742.905 1190.171) rotate(180)" fill="url(#linear-gradient)"/>
</svg>
