<svg xmlns="http://www.w3.org/2000/svg" xmlns:xlink="http://www.w3.org/1999/xlink" width="1920.509" height="1078.142" viewBox="0 0 1920.509 1078.142">
  <defs>
    <linearGradient id="linear-gradient" x1="0.488" x2="0.5" y2="1" gradientUnits="objectBoundingBox">
      <stop offset="0" stop-color="#292e49"/>
      <stop offset="1" stop-color="#536976"/>
    </linearGradient>
  </defs>
  <g id="Group_18" data-name="Group 18" transform="translate(0 0)">
    <rect id="Rectangle_1" data-name="Rectangle 1" width="1920" height="1078" fill="#fff"/>
    <path id="Subtraction_10" data-name="Subtraction 10" d="M-2760.761,1179.142H-3980c30.893-17.2,60.367-35.49,87.6-54.351,15.866-10.988,31.177-22.32,45.506-33.68,15.622-12.386,30.476-25.122,44.147-37.854,14.759-13.745,28.526-27.846,40.919-41.909A476.226,476.226,0,0,0-3726,965.5a380.223,380.223,0,0,0,28.853-49.654c4.161-8.663,7.939-17.484,11.229-26.218,3.38-8.976,6.336-18.1,8.786-27.127,2.419-8.912,4.413-17.973,5.927-26.932a274.124,274.124,0,0,0,3.242-27.745,272.508,272.508,0,0,0,.35-28.543,279.729,279.729,0,0,0-2.75-29.329,296.707,296.707,0,0,0-6.059-30.1c-2.606-10.21-5.828-20.593-9.575-30.859-3.823-10.47-8.3-21.1-13.3-31.6-5.1-10.713-10.9-21.592-17.233-32.337-89.527-151.928-144.945-260.86-174.4-342.817a565.041,565.041,0,0,1-17.444-57.082c-2.106-8.675-3.867-17.146-5.236-25.177-1.359-7.97-2.374-15.762-3.019-23.157-2.51-28.766.273-53.568,8.508-75.824h1147.366V1179.141Z" transform="translate(4681.261 -101)" fill="#b8c1c6"/>
    <path id="Signin_bg" d="M-2636.672,1338.754H-3815.921c30.895-17.205,60.369-35.491,87.6-54.352,15.868-10.989,31.178-22.321,45.5-33.68,15.621-12.385,30.474-25.121,44.147-37.854,14.759-13.745,28.527-27.845,40.919-41.909a476.3,476.3,0,0,0,35.821-45.841,380.328,380.328,0,0,0,28.853-49.653c4.164-8.669,7.941-17.49,11.229-26.219,3.379-8.971,6.334-18.1,8.786-27.126,2.419-8.91,4.413-17.971,5.927-26.932a273.945,273.945,0,0,0,3.243-27.745,272.621,272.621,0,0,0,.35-28.544,279.718,279.718,0,0,0-2.75-29.329,296.7,296.7,0,0,0-6.059-30.1c-2.609-10.219-5.83-20.6-9.575-30.859-3.823-10.47-8.3-21.1-13.3-31.6-5.1-10.716-10.9-21.595-17.232-32.336-89.527-151.928-144.945-260.861-174.4-342.817a564.849,564.849,0,0,1-17.444-57.082c-2.105-8.671-3.867-17.142-5.236-25.176-1.358-7.965-2.374-15.757-3.019-23.158-2.509-28.769.274-53.571,8.509-75.823h1107.375V1338.753Z" transform="translate(4557.181 -260.612)" fill="url(#linear-gradient)"/>
  </g>
</svg>
