<svg xmlns="http://www.w3.org/2000/svg" width="249.535" height="519.875" viewBox="0 0 249.535 519.875">
  <path id="Subtraction_2" data-name="Subtraction 2" d="M-1704.843,608.523h0a85.633,85.633,0,0,1-26.423-7.884,85.826,85.826,0,0,1-23.265-16.586L-1929.189,409.4a86.641,86.641,0,0,1-11.02-13.491,85.564,85.564,0,0,1-7.872-14.958,86.007,86.007,0,0,1-4.723-15.937,86.626,86.626,0,0,1-1.574-16.426,86.625,86.625,0,0,1,1.574-16.426,86.006,86.006,0,0,1,4.723-15.936,85.562,85.562,0,0,1,7.872-14.958,86.634,86.634,0,0,1,11.02-13.491l174.656-174.656a85.821,85.821,0,0,1,23.265-16.586,85.659,85.659,0,0,1,26.425-7.885Z" transform="translate(1954.378 -88.648)" fill="#e2f8fe"/>
</svg>
