<svg xmlns="http://www.w3.org/2000/svg" xmlns:xlink="http://www.w3.org/1999/xlink" width="211.007" height="449.393" viewBox="0 0 211.007 449.393">
  <defs>
    <linearGradient id="linear-gradient" x1="-0.162" y1="-0.162" x2="0.922" y2="0.922" gradientUnits="objectBoundingBox">
      <stop offset="0" stop-color="#5433ff"/>
      <stop offset="0.502" stop-color="#20bdff"/>
      <stop offset="1" stop-color="#a5fecb"/>
    </linearGradient>
  </defs>
  <path id="Subtraction_1" data-name="Subtraction 1" d="M-1743.37,565.7h0a85.6,85.6,0,0,1-24.335-8.186,85.96,85.96,0,0,1-21.474-15.691l-140.007-140.007a86.639,86.639,0,0,1-11.02-13.491,85.572,85.572,0,0,1-7.872-14.958,86.01,86.01,0,0,1-4.723-15.936A86.611,86.611,0,0,1-1954.378,341a86.612,86.612,0,0,1,1.574-16.425,86.009,86.009,0,0,1,4.723-15.936,85.57,85.57,0,0,1,7.872-14.958,86.638,86.638,0,0,1,11.02-13.491l140.007-140.008a85.958,85.958,0,0,1,21.474-15.69,85.631,85.631,0,0,1,24.337-8.187Z" transform="translate(1954.378 -116.304)" fill="url(#linear-gradient)"/>
</svg>
